# xmcd
#
# Track frame offsets:
#	150
#	16265
#	26552
#	39325
#	50460
#	60670
#	71542
#	80727
#	90792
#	101315
#	114317
#	128377
#	140142
#	153842
#
# Disc length: 2179 seconds
#
# Revision: 1
# Processed by: cddbd v1.5.2PL0 Copyright (c) Steve Scherf et al.
# Submitted via: audiograbber 1.83.01
#
DISCID=a208810e
DTITLE=Michael Dee - Country - Party
DYEAR=1995
DGENRE=Country
TTITLE0=Ich steh' auf Country - Musik
TTITLE1=Some broken Hearts
TTITLE2=Tom Dooley
TTITLE3=Ring of Fire
TTITLE4=Bonanza
TTITLE5=Die Geisterreiter
TTITLE6=The yellow Rose of Texas
TTITLE7=Deep in the Heart of Texas
TTITLE8=7000 Rinder
TTITLE9=Sierra Madre
TTITLE10=Country - Club
TTITLE11=Folsome Prison Blues
TTITLE12=Blaue Augen, blondes Haar
TTITLE13=Adios Amigos
EXTD=
EXTT0=
EXTT1=
EXTT2=
EXTT3=
EXTT4=
EXTT5=
EXTT6=
EXTT7=
EXTT8=
EXTT9=
EXTT10=
EXTT11=
EXTT12=
EXTT13=
PLAYORDER=
